<?xml version="1.0" encoding="iso-8859-1"?>
<!-- Uploaded to: SVG Repo, www.svgrepo.com, Generator: SVG Repo Mixer Tools -->
<!DOCTYPE svg PUBLIC "-//W3C//DTD SVG 1.1//EN" "http://www.w3.org/Graphics/SVG/1.1/DTD/svg11.dtd">
<svg fill="#000000" version="1.1" id="Capa_1" xmlns="http://www.w3.org/2000/svg" xmlns:xlink="http://www.w3.org/1999/xlink" 
	 width="800px" height="800px" viewBox="0 0 476.547 476.547"
	 xml:space="preserve">
<g>
	<path d="M460.465,39.144c-10.391-10.389-24.201-16.109-38.895-16.109c-14.689-0.002-28.502,5.721-38.891,16.109l-65.648,65.648
		c-2.533-0.148-5.084-0.227-7.652-0.227H131.725C59.092,104.565,0,163.657,0,236.292c0,72.633,59.092,131.726,131.725,131.726
		h62.955v70.158c0,6.225,3.717,11.787,9.469,14.17c1.871,0.77,3.848,1.166,5.863,1.166c4.098,0,7.936-1.582,10.807-4.457
		l81.603-81.037h6.959c72.633,0,131.723-59.093,131.723-131.726c0-28.236-8.938-54.418-24.123-75.883l43.484-43.484
		C481.908,95.48,481.908,60.587,460.465,39.144z M273.277,235.189c-2.474,0.508-5.031-0.26-6.814-2.043
		c-1.785-1.785-2.553-4.344-2.045-6.814l8.18-39.838l40.516,40.518L273.277,235.189z M327.773,214.261l-42.429-42.426l95.19-95.191
		l42.426,42.428L327.773,214.261z M442.787,99.248l-6.119,6.119L394.24,62.939l6.119-6.117c11.717-11.717,30.711-11.717,42.428,0
		C454.502,68.537,454.502,87.533,442.787,99.248z"/>
</g>
</svg>